<svg width="38" height="38" viewBox="0 0 38 38" fill="none" xmlns="http://www.w3.org/2000/svg">
<path d="M5.48463 26.6443C3.16663 24.7902 3.16663 23.3874 3.16663 17.4167C3.16663 11.4459 3.16663 8.45975 5.48463 6.60567C7.80579 4.75 11.5361 4.75 19 4.75C26.4638 4.75 30.1957 4.75 32.5137 6.60567C34.8317 8.46133 34.8333 11.4459 34.8333 17.4167C34.8333 23.3874 34.8333 24.7902 32.5137 26.6443C30.1973 28.5 26.4638 28.5 19 28.5C15.0258 28.5 12.9833 31.2518 9.49996 33.25V28.1643C7.76779 27.9062 6.49321 27.4518 5.48463 26.6443Z" fill="#14AE5C" fill-opacity="0.13" stroke="#14AE5C" stroke-width="2" stroke-linecap="round" stroke-linejoin="round"/>
<path d="M13.91 19.1C13.65 19.1 13.3967 19.0733 13.15 19.02C12.91 18.9667 12.6533 18.8667 12.38 18.72L12.66 18.04C12.8067 18.1267 12.9733 18.2033 13.16 18.27C13.3467 18.33 13.5633 18.36 13.81 18.36C14.3033 18.36 14.6867 18.18 14.96 17.82C15.24 17.4533 15.38 16.9267 15.38 16.24C15.38 15.5667 15.2367 15.0533 14.95 14.7C14.67 14.34 14.2367 14.16 13.65 14.16C13.4367 14.16 13.22 14.1833 13 14.23C12.78 14.2767 12.5867 14.3467 12.42 14.44V13.69C12.6133 13.59 12.8233 13.52 13.05 13.48C13.2833 13.44 13.5167 13.42 13.75 13.42C14.35 13.42 14.8367 13.54 15.21 13.78C15.5833 14.0133 15.8567 14.34 16.03 14.76C16.2033 15.18 16.29 15.6733 16.29 16.24C16.29 17.12 16.09 17.8167 15.69 18.33C15.2967 18.8433 14.7033 19.1 13.91 19.1ZM15.2395 12.65V10.54H16.1195V12.65H15.2395ZM19.2819 19V15.11C19.2819 14.7833 19.2052 14.5433 19.0519 14.39C18.9052 14.2367 18.6552 14.16 18.3019 14.16C18.0619 14.16 17.8352 14.1933 17.6219 14.26C17.4152 14.32 17.2152 14.4067 17.0219 14.52V13.72C17.1552 13.6533 17.3452 13.5867 17.5919 13.52C17.8385 13.4533 18.1319 13.42 18.4719 13.42C18.8185 13.42 19.1185 13.47 19.3719 13.57C19.6252 13.67 19.8219 13.8367 19.9619 14.07C20.1019 14.2967 20.1719 14.6 20.1719 14.98V19H19.2819ZM22.6944 19L20.9844 13.52H21.8844L23.3644 18.23H23.4844C23.6444 18.23 23.801 18.1933 23.9544 18.12C24.1077 18.04 24.2377 17.94 24.3444 17.82C24.5444 17.6 24.691 17.3233 24.7844 16.99C24.8777 16.65 24.9244 16.3167 24.9244 15.99C24.9244 15.4367 24.7977 15.0033 24.5444 14.69C24.2977 14.37 23.9544 14.21 23.5144 14.21C23.4277 14.21 23.341 14.2167 23.2544 14.23C23.1744 14.2433 23.1077 14.26 23.0544 14.28L22.8344 13.57C22.9744 13.53 23.1044 13.5033 23.2244 13.49C23.351 13.4767 23.4644 13.47 23.5644 13.47C23.8977 13.47 24.1944 13.52 24.4544 13.62C24.721 13.7133 24.9477 13.8533 25.1344 14.04C25.3677 14.2667 25.5377 14.55 25.6444 14.89C25.7577 15.23 25.8144 15.6067 25.8144 16.02C25.8144 16.54 25.7344 17.0033 25.5744 17.41C25.4144 17.81 25.2144 18.13 24.9744 18.37C24.781 18.5633 24.5444 18.7167 24.2644 18.83C23.9844 18.9433 23.6277 19 23.1944 19H22.6944Z" fill="black"/>
</svg>
