<svg width="88" height="70" viewBox="0 0 88 70" fill="none" xmlns="http://www.w3.org/2000/svg">
<g clip-path="url(#clip0_8_64)">
<path d="M52.5 13.125V43.75H8.75V13.125H52.5ZM8.75 4.37503C3.92383 4.37503 0 8.29886 0 13.125V43.75C0 48.5762 3.92383 52.5 8.75 52.5H24.7871L23.3242 56.875H13.125C10.7051 56.875 8.75 58.8301 8.75 61.25C8.75 63.67 10.7051 65.625 13.125 65.625H48.125C50.5449 65.625 52.5 63.67 52.5 61.25C52.5 58.8301 50.5449 56.875 48.125 56.875H37.9121L36.4492 52.5H52.5C57.3262 52.5 61.25 48.5762 61.25 43.75V13.125C61.25 8.29886 57.3262 4.37503 52.5 4.37503H8.75ZM72.1875 4.37503C68.5645 4.37503 65.625 7.31448 65.625 10.9375V59.0625C65.625 62.6856 68.5645 65.625 72.1875 65.625H80.9375C84.5605 65.625 87.5 62.6856 87.5 59.0625V10.9375C87.5 7.31448 84.5605 4.37503 80.9375 4.37503H72.1875ZM74.375 13.125H78.75C79.9531 13.125 80.9375 14.1094 80.9375 15.3125C80.9375 16.5157 79.9531 17.5 78.75 17.5H74.375C73.1719 17.5 72.1875 16.5157 72.1875 15.3125C72.1875 14.1094 73.1719 13.125 74.375 13.125ZM72.1875 24.0625C72.1875 22.8594 73.1719 21.875 74.375 21.875H78.75C79.9531 21.875 80.9375 22.8594 80.9375 24.0625C80.9375 25.2657 79.9531 26.25 78.75 26.25H74.375C73.1719 26.25 72.1875 25.2657 72.1875 24.0625ZM76.5625 45.9375C77.7228 45.9375 78.8356 46.3985 79.6561 47.2189C80.4766 48.0394 80.9375 49.1522 80.9375 50.3125C80.9375 51.4729 80.4766 52.5857 79.6561 53.4061C78.8356 54.2266 77.7228 54.6875 76.5625 54.6875C75.4022 54.6875 74.2894 54.2266 73.4689 53.4061C72.6484 52.5857 72.1875 51.4729 72.1875 50.3125C72.1875 49.1522 72.6484 48.0394 73.4689 47.2189C74.2894 46.3985 75.4022 45.9375 76.5625 45.9375Z" fill="#5A5A5A"/>
</g>
<defs>
<clipPath id="clip0_8_64">
<rect width="87.5" height="70" fill="white"/>
</clipPath>
</defs>
</svg>
