<svg width="82" height="82" viewBox="0 0 82 82" fill="none" xmlns="http://www.w3.org/2000/svg">
<mask id="mask0_8_114" style="mask-type:luminance" maskUnits="userSpaceOnUse" x="8" y="8" width="66" height="66">
<path d="M37.5833 10.25H15.375C14.0158 10.25 12.7122 10.7899 11.7511 11.751C10.79 12.7122 10.25 14.0157 10.25 15.375V52.9583C10.25 54.3175 10.79 55.6211 11.7511 56.5822C12.7122 57.5433 14.0158 58.0833 15.375 58.0833H66.625C67.9842 58.0833 69.2878 57.5433 70.2489 56.5822C71.21 55.6211 71.75 54.3175 71.75 52.9583V37.5833M41 58.0833V71.75M23.9167 71.75H58.0833" stroke="white" stroke-width="2.66667" stroke-linecap="round" stroke-linejoin="round"/>
<path d="M56.8875 10.25C53.7749 10.25 51.25 12.7015 51.25 15.7252C51.25 21.1987 57.9125 26.1751 61.5 27.3333C65.0875 26.1751 71.75 21.2004 71.75 15.7252C71.75 12.7015 69.2268 10.25 66.1125 10.25C65.2146 10.2463 64.3286 10.4552 63.5269 10.8596C62.7252 11.264 62.0306 11.8524 61.5 12.5768C60.9694 11.8524 60.2748 11.264 59.4731 10.8596C58.6714 10.4552 57.7854 10.2463 56.8875 10.25Z" fill="#555555" stroke="white" stroke-width="2.66667" stroke-linecap="round" stroke-linejoin="round"/>
</mask>
<g mask="url(#mask0_8_114)">
<path d="M0 0H82V82H0V0Z" fill="#BA2A92"/>
</g>
</svg>
